<svg width="40" height="40" viewBox="0 0 40 40" fill="none" xmlns="http://www.w3.org/2000/svg">
<circle cx="20" cy="20" r="19.5" fill="#004F68" stroke="#004F68"/>
<path d="M25.404 17.324C25.404 17.996 25.242 18.626 24.918 19.214C24.606 19.802 24.108 20.276 23.424 20.636C22.752 20.996 21.9 21.176 20.868 21.176H18.762V26H16.242V13.436H20.868C21.84 13.436 22.668 13.604 23.352 13.94C24.036 14.276 24.546 14.738 24.882 15.326C25.23 15.914 25.404 16.58 25.404 17.324ZM20.76 19.142C21.456 19.142 21.972 18.986 22.308 18.674C22.644 18.35 22.812 17.9 22.812 17.324C22.812 16.1 22.128 15.488 20.76 15.488H18.762V19.142H20.76Z" fill="white"/>
</svg>
